# xmcd
#
# Track frame offsets: 
#        150
#        26218
#        61994
#        107096
#        136641
#        168744
#        215845
#        268645
#        296578
#
# Disc length: 4487 seconds
#
# Revision: 0
# Processed by: cddbd v1.5.2PL0 Copyright (c) Steve Scherf et al.
# Submitted via: ExactAudioCopy v1.0b3
#
DISCID=8b118509
DTITLE=Gov' Mule - Beacon Theatre 2012-12-30-D1
DYEAR=2012
DGENRE=Blues
TTITLE0=Railroad Boy
TTITLE1=30 Days In The Hole
TTITLE2=Rocking Horse
TTITLE3=Banks Of The Deep End
TTITLE4=Painted Silver Light
TTITLE5=Birth Of The Mule
TTITLE6=Devil Likes It Slow
TTITLE7=I Think You Know What I Mean
TTITLE8=When The Levee Breaks
EXTD=
EXTT0=
EXTT1=
EXTT2=
EXTT3=
EXTT4=
EXTT5=
EXTT6=
EXTT7=
EXTT8=
PLAYORDER=
